<svg width="219" height="52" viewBox="0 0 219 52" fill="none" xmlns="http://www.w3.org/2000/svg">
<g clip-path="url(#clip0_2_25)">
<path d="M14.04 36.18C11.4 36.18 9.06 35.64 7.08 34.62C6.06 35.82 5.64 37.08 5.64 37.86C5.64 38.34 5.64 40.44 9.24 40.44H22.68C27 40.44 30.24 42.9 30.24 46.14C30.24 48.24 28.92 50.34 26.58 51.96H25.14C25.5 51.18 25.68 50.52 25.68 49.86C25.68 49.08 25.32 48.3 24.6 47.46C23.88 46.62 22.44 46.2 20.22 46.2H7.38C2.82 46.2 0 43.86 0 40.2C0 37.5 1.56 35.4 5.22 33.42C2.58 31.26 1.02 27.9 1.02 23.58C1.02 15.66 6.84 11.4 14.04 11.4H29.64V16.44L20.04 14.34C24.78 15.96 27.12 19.2 27.12 24.18C27.12 31.08 22.38 36.18 14.04 36.18ZM14.1 31.32C19.14 31.32 21.54 27.66 21.54 23.58C21.54 19.62 19.2 16.26 14.1 16.26C9 16.26 6.6 19.62 6.6 23.28C6.6 27.66 9.12 31.32 14.1 31.32ZM46.8876 37.44C53.0075 37.44 56.1275 32.4 56.1275 27.12C56.1275 21.72 53.1275 16.56 46.8876 16.56C40.6476 16.56 37.6476 21.72 37.6476 27.12C37.6476 32.4 40.7676 37.44 46.8876 37.44ZM46.8876 42.6C37.1076 42.6 31.4076 35.88 31.4076 27C31.4076 18.18 36.9876 11.4 46.8876 11.4C56.7275 11.4 62.4275 18.18 62.4275 27C62.4275 35.88 56.7275 42.6 46.8876 42.6ZM67.2965 42V0H82.8965C91.4165 0 97.7165 4.5 97.7165 13.44C97.7165 22.44 91.4165 27 82.8965 27H73.6565V42H67.2965ZM73.6565 21.36H82.2965C87.3365 21.36 91.0565 19.08 91.0565 13.56C91.0565 8.1 87.3365 5.82 82.3565 5.82H73.6565V21.36ZM114.447 37.44C120.567 37.44 123.687 32.4 123.687 27.12C123.687 21.72 120.687 16.56 114.447 16.56C108.207 16.56 105.206 21.72 105.206 27.12C105.206 32.4 108.327 37.44 114.447 37.44ZM114.447 42.6C104.667 42.6 98.9665 35.88 98.9665 27C98.9665 18.18 104.547 11.4 114.447 11.4C124.287 11.4 129.986 18.18 129.986 27C129.986 35.88 124.287 42.6 114.447 42.6ZM134.255 42V12H140.435V18.6C142.295 14.22 146.375 11.4 150.755 11.4C156.815 11.4 161.555 16.8 161.555 22.92V42H155.375V23.76C155.375 19.62 153.215 16.26 148.655 16.26C143.795 16.26 140.435 20.1 140.435 25.14V42H134.255ZM171.654 27.12C171.654 33.66 174.955 37.8 179.995 37.8C185.035 37.8 188.395 33.54 188.395 27.12C188.395 20.7 184.974 16.32 179.934 16.32C174.954 16.32 171.654 20.64 171.654 27.12ZM194.395 0V42H188.214V35.88C186.054 39.72 182.575 42.6 177.535 42.6C170.335 42.6 165.294 36.54 165.294 27.12C165.294 17.7 170.275 11.46 177.415 11.46C182.455 11.46 186.414 14.46 188.154 18.78V0H194.395ZM218.736 17.34H212.915C208.055 17.34 205.296 20.94 205.296 25.92V42H199.115V12H205.296V18.6C207.156 14.52 211.235 12 215.615 12H218.736V17.34Z" fill="#005C60"/>
</g>
<defs>
<clipPath id="clip0_2_25">
<rect width="219" height="52" fill="white"/>
</clipPath>
</defs>
</svg>
